# xmcd CD database file generated by Grip 3.2.0
# 
# Track frame offsets:
#       150
#       25085
#       42452
#       63577
#       85860
#       97877
#       114952
#       137312
#       158112
#       172205
#       203547
# 
# Disc length: 2953 seconds
# 
# Revision: 3
# Processed by: cddbd v1.5.1PL0 Copyright (c) Steve Scherf et al.
# Submitted via: Grip 3.2.0
# 
DISCID=850b870b
DTITLE=Dave Thompson - Little Dave And Big Love
DYEAR=1995
DGENRE=Blues
TTITLE0=Standing Up On My Own
TTITLE1=You Took My Baby
TTITLE2=After Hours Bar
TTITLE3=I'm Having It So Hard
TTITLE4=Hey Momma
TTITLE5=Why Do You Treat Me This Way
TTITLE6=Instrumental #7
TTITLE7=Got A Bad Feeling
TTITLE8=Ain't It A Shame
TTITLE9=I Don't Care What Nobody Say
TTITLE10=Mississippi Boy
EXTD=YEAR: 1995
EXTT0=set  I
EXTT1=
EXTT2=
EXTT3=
EXTT4=
EXTT5=
EXTT6=set II
EXTT7=
EXTT8=
EXTT9=
EXTT10=
PLAYORDER=
